TITLE ""
FILE "P1Q_t_1201-1209.mp3" MP3
  TRACK 01 AUDIO
    TITLE "P1Q_t_1201-1209_01"
    INDEX 01 00:00:00
  TRACK 02 AUDIO
    TITLE "P1Q_t_1201-1209_02"
    INDEX 01 00:00:08
  TRACK 03 AUDIO
    TITLE "P1Q_t_1201-1209_03"
    INDEX 01 00:02:07
  TRACK 04 AUDIO
    TITLE "P1Q_t_1201-1209_04"
    INDEX 01 00:02:54
  TRACK 05 AUDIO
    TITLE "P1Q_t_1201-1209_05"
    INDEX 01 00:03:60
  TRACK 06 AUDIO
    TITLE "P1Q_t_1201-1209_06"
    INDEX 01 00:04:30
  TRACK 07 AUDIO
    TITLE "P1Q_t_1201-1209_07"
    INDEX 01 00:05:43
  TRACK 08 AUDIO
    TITLE "P1Q_t_1201-1209_08"
    INDEX 01 00:05:66
  TRACK 09 AUDIO
    TITLE "P1Q_t_1201-1209_09"
    INDEX 01 00:09:37
  TRACK 10 AUDIO
    TITLE "P1Q_t_1201-1209_10"
    INDEX 01 00:09:54
  TRACK 11 AUDIO
    TITLE "P1Q_t_1201-1209_11"
    INDEX 01 00:14:67
  TRACK 12 AUDIO
    TITLE "P1Q_t_1201-1209_12"
    INDEX 01 00:15:41
  TRACK 13 AUDIO
    TITLE "P1Q_t_1201-1209_13"
    INDEX 01 00:16:62
  TRACK 14 AUDIO
    TITLE "P1Q_t_1201-1209_14"
    INDEX 01 00:17:07
  TRACK 15 AUDIO
    TITLE "P1Q_t_1201-1209_15"
    INDEX 01 00:18:57
  TRACK 16 AUDIO
    TITLE "P1Q_t_1201-1209_16"
    INDEX 01 00:19:02
  TRACK 17 AUDIO
    TITLE "P1Q_t_1201-1209_17"
    INDEX 01 00:23:31
  TRACK 18 AUDIO
    TITLE "P1Q_t_1201-1209_18"
    INDEX 01 00:24:01
  TRACK 19 AUDIO
    TITLE "P1Q_t_1201-1209_19"
    INDEX 01 00:24:75
  TRACK 20 AUDIO
    TITLE "P1Q_t_1201-1209_20"
    INDEX 01 00:25:22
  TRACK 21 AUDIO
    TITLE "P1Q_t_1201-1209_21"
    INDEX 01 00:32:51
  TRACK 22 AUDIO
    TITLE "P1Q_t_1201-1209_22"
    INDEX 01 00:32:69
  TRACK 23 AUDIO
    TITLE "P1Q_t_1201-1209_23"
    INDEX 01 00:38:52
  TRACK 24 AUDIO
    TITLE "P1Q_t_1201-1209_24"
    INDEX 01 00:39:24
  TRACK 25 AUDIO
    TITLE "P1Q_t_1201-1209_25"
    INDEX 01 00:40:33
  TRACK 26 AUDIO
    TITLE "P1Q_t_1201-1209_26"
    INDEX 01 00:40:55
  TRACK 27 AUDIO
    TITLE "P1Q_t_1201-1209_27"
    INDEX 01 00:44:06
  TRACK 28 AUDIO
    TITLE "P1Q_t_1201-1209_28"
    INDEX 01 00:44:23
  TRACK 29 AUDIO
    TITLE "P1Q_t_1201-1209_29"
    INDEX 01 00:48:60
  TRACK 30 AUDIO
    TITLE "P1Q_t_1201-1209_30"
    INDEX 01 00:49:30
  TRACK 31 AUDIO
    TITLE "P1Q_t_1201-1209_31"
    INDEX 01 00:50:45
  TRACK 32 AUDIO
    TITLE "P1Q_t_1201-1209_32"
    INDEX 01 00:50:67
  TRACK 33 AUDIO
    TITLE "P1Q_t_1201-1209_33"
    INDEX 01 00:52:27
  TRACK 34 AUDIO
    TITLE "P1Q_t_1201-1209_34"
    INDEX 01 00:52:46
  TRACK 35 AUDIO
    TITLE "P1Q_t_1201-1209_35"
    INDEX 01 00:56:17
  TRACK 36 AUDIO
    TITLE "P1Q_t_1201-1209_36"
    INDEX 01 00:56:62
  TRACK 37 AUDIO
    TITLE "P1Q_t_1201-1209_37"
    INDEX 01 00:57:67
  TRACK 38 AUDIO
    TITLE "P1Q_t_1201-1209_38"
    INDEX 01 00:58:14
  TRACK 39 AUDIO
    TITLE "P1Q_t_1201-1209_39"
    INDEX 01 01:00:30
  TRACK 40 AUDIO
    TITLE "P1Q_t_1201-1209_40"
    INDEX 01 01:00:50
  TRACK 41 AUDIO
    TITLE "P1Q_t_1201-1209_41"
    INDEX 01 01:04:49
  TRACK 42 AUDIO
    TITLE "P1Q_t_1201-1209_42"
    INDEX 01 01:05:22
  TRACK 43 AUDIO
    TITLE "P1Q_t_1201-1209_43"
    INDEX 01 01:06:23
  TRACK 44 AUDIO
    TITLE "P1Q_t_1201-1209_44"
    INDEX 01 01:06:43
  TRACK 45 AUDIO
    TITLE "P1Q_t_1201-1209_45"
    INDEX 01 01:08:18
  TRACK 46 AUDIO
    TITLE "P1Q_t_1201-1209_46"
    INDEX 01 01:08:36
  TRACK 47 AUDIO
    TITLE "P1Q_t_1201-1209_47"
    INDEX 01 01:12:16
  TRACK 48 AUDIO
    TITLE "P1Q_t_1201-1209_48"
    INDEX 01 01:12:61
  TRACK 49 AUDIO
    TITLE "P1Q_t_1201-1209_49"
    INDEX 01 01:14:09
  TRACK 50 AUDIO
    TITLE "P1Q_t_1201-1209_50"
    INDEX 01 01:14:28
  TRACK 51 AUDIO
    TITLE "P1Q_t_1201-1209_51"
    INDEX 01 01:17:33
  TRACK 52 AUDIO
    TITLE "P1Q_t_1201-1209_52"
    INDEX 01 01:17:52
  TRACK 53 AUDIO
    TITLE "P1Q_t_1201-1209_53"
    INDEX 01 01:22:26
  TRACK 54 AUDIO
    TITLE "P1Q_t_1201-1209_54"
    INDEX 01 01:22:73
  TRACK 55 AUDIO
    TITLE "P1Q_t_1201-1209_55"
    INDEX 01 01:24:11
  TRACK 56 AUDIO
    TITLE "P1Q_t_1201-1209_56"
    INDEX 01 01:24:33
  TRACK 57 AUDIO
    TITLE "P1Q_t_1201-1209_57"
    INDEX 01 01:28:21
  TRACK 58 AUDIO
    TITLE "P1Q_t_1201-1209_58"
    INDEX 01 01:28:38
  TRACK 59 AUDIO
    TITLE "P1Q_t_1201-1209_59"
    INDEX 01 01:33:14
